HIERARCHY
ROOT Hips
{
  OFFSET 0 0 0
  CHANNELS 6 Xposition Yposition Zposition Zrotation Yrotation Xrotation
  JOINT LeftThigh
  {
    OFFSET 8.409438 0 -5.917753
    CHANNELS 3 Zrotation Yrotation Xrotation
    JOINT LeftLeg
    {
      OFFSET 0 0 -42.358652
      CHANNELS 3 Zrotation Yrotation Xrotation
      JOINT LeftFoot
      {
        OFFSET 0 0 -39.357303
        CHANNELS 3 Zrotation Yrotation Xrotation
      }
    }
  }
  JOINT RightThigh
  {
    OFFSET -8.409438 0 -5.917753
    CHANNELS 3 Zrotation Yrotation Xrotation
    JOINT RightLeg
    {
      OFFSET 0 0 -42.358652
      CHANNELS 3 Zrotation Yrotation Xrotation
      JOINT RightFoot
      {
        OFFSET 0 0 -39.357303
        CHANNELS 3 Zrotation Yrotation Xrotation
      }
    }
  }
  JOINT SpineLow
  {
    OFFSET 0 0 4.719101
    CHANNELS 3 Zrotation Yrotation Xrotation
    JOINT SpineMid
    {
      OFFSET 0 0 12.899191
      CHANNELS 3 Zrotation Yrotation Xrotation
      JOINT Chest
      {
        OFFSET 0 0 12.899191
        CHANNELS 3 Zrotation Yrotation Xrotation
        JOINT LeftShoulder
        {
          OFFSET 7.550562 1.41573 9.438202
          CHANNELS 3 Zrotation Yrotation Xrotation
          JOINT LeftArm
          {
            OFFSET 9.155056 0 4.247191
            CHANNELS 3 Zrotation Yrotation Xrotation
            JOINT LeftForearm
            {
              OFFSET 0 0 25.771955
              CHANNELS 3 Zrotation Yrotation Xrotation
              JOINT LeftHand
              {
                OFFSET 0 0 25.197169
                CHANNELS 3 Zrotation Yrotation Xrotation
              }
            }
          }
        }
        JOINT RightShoulder
        {
          OFFSET -7.550562 1.41573 9.438202
          CHANNELS 3 Zrotation Yrotation Xrotation
          JOINT RightArm
          {
            OFFSET -9.155056 0 4.247191
            CHANNELS 3 Zrotation Yrotation Xrotation
            JOINT RightForearm
            {
              OFFSET 0 0 -25.771955
              CHANNELS 3 Zrotation Yrotation Xrotation
              JOINT RightHand
              {
                OFFSET 0 0 -25.197169
                CHANNELS 3 Zrotation Yrotation Xrotation
              }
            }
          }
        }
        JOINT Neck
        {
          OFFSET 0 0 15.101124
          CHANNELS 3 Zrotation Yrotation Xrotation
          JOINT Head
          {
            OFFSET 0 0 11.325843
            CHANNELS 3 Zrotation Yrotation Xrotation
            End Site
            {
              OFFSET 0 0 14.157303
            }
          }
        }
      }
    }
  }
}
MOTION
Frames: 17
Frame Time: 0.0
0.0  101.685394  0.0  -4.697331  -16.009016  -101.710522  48.012358  -27.079725  -27.44238  -22.983518  20.097956  36.61976  -4.240053  -0.037521  2.978275  -7.30862  3.438538  15.810682  6.267861  6.876662  24.829086  9.536171  16.392518  -1.797365  -0.055731  -1.223634  3.791731  -0.343821  -3.326493  10.375226  -0.343821  -3.326493  10.375226  -11.412071  28.142573  -2.445938  -165.039316  74.15925  -119.289246  -39.621606  -33.603  85.515573  26.824296  -47.243297  22.039836  -0.223565  -0.373155  13.483544  95.434549  29.392079  29.579529  -26.329305  29.555707  -98.605648  76.472752  14.172147  34.263885  8.543852  -1.05607  -4.693043  6.400048  -0.857926  -3.50573  
0.0  101.685394  0.0  -4.45778  -15.843338  -101.71489  47.215685  -26.974473  -27.02235  -22.593342  20.176406  36.511419  -3.945107  -0.065255  3.028934  -5.757135  3.49616  15.957805  5.544156  6.745818  24.849452  8.643827  15.985864  -1.998586  -0.077202  -1.210505  3.75745  -0.398623  -3.28762  10.282302  -0.398623  -3.28762  10.282302  -11.252063  28.008191  -2.271982  -167.117386  73.762463  -121.256787  -39.756238  -33.094826  85.995229  26.988823  -46.650728  22.432342  -0.464979  -0.581907  13.370702  95.657545  29.97316  29.753351  -26.424196  29.179179  -98.877291  76.580089  14.173796  34.041006  8.479618  -0.971983  -4.643143  6.352614  -0.793652  -3.469579  
0.0  101.685394  0.0  -4.217973  -15.633461  -101.714467  46.331183  -26.831362  -26.574305  -21.862248  20.032449  36.598655  -3.898584  -0.11605  3.046947  -5.027629  3.488362  15.890357  4.898548  6.701123  24.76291  8.567499  15.97473  -1.874892  -0.049842  -1.199237  3.734511  -0.321102  -3.261313  10.21804  -0.321102  -3.261313  10.21804  -11.304567  27.85475  -2.17216  -169.225579  73.406987  -123.148086  -39.888638  -32.656767  85.995725  26.752654  -46.045329  23.252912  -0.627211  -0.583724  13.421404  95.464444  30.980537  29.587324  -26.439735  28.612389  -99.158263  76.634343  14.224581  33.828295  8.284108  -0.905725  -4.619779  6.206528  -0.742133  -3.453237  
0.0  101.685394  0.0  -3.942325  -15.514977  -101.769126  45.490605  -26.674653  -26.146505  -20.884611  19.74698  36.89803  -4.02276  -0.125516  3.027354  -4.127607  3.601624  15.98011  4.839384  6.715623  24.910638  7.907444  15.616568  -2.067038  -0.018537  -1.184932  3.748917  -0.23419  -3.227074  10.255723  -0.23419  -3.227074  10.255723  -11.650031  27.512647  -2.364803  -170.967179  72.785419  -124.960116  -39.988713  -32.525824  85.75261  26.866059  -45.180679  23.848742  -0.784515  -0.638071  13.257382  95.412337  32.073443  29.567008  -26.411066  28.011819  -99.447943  76.668339  14.261406  33.673228  8.075625  -0.793852  -4.766626  6.050868  -0.658565  -3.56516  
0.0  101.685394  0.0  -3.688134  -15.256463  -101.705212  44.613564  -26.392717  -25.808771  -19.84903  19.301235  37.268148  -4.259013  -0.100455  2.975373  -3.794212  3.788398  15.926842  4.422765  6.686354  24.692174  8.004092  15.561353  -1.951449  -0.021451  -1.176476  3.736159  -0.240207  -3.203643  10.220852  -0.240207  -3.203642  10.220852  -11.630229  27.342373  -2.469035  -173.121665  72.343338  -126.933518  -40.158289  -32.209443  85.7639  26.718423  -44.692438  24.514577  -0.731561  -0.644147  13.202126  95.346964  33.26301  29.60061  -26.501104  27.51446  -99.757207  76.662646  14.247252  33.578936  7.998501  -0.678922  -4.814569  5.9939  -0.572368  -3.602731  
0.0  101.685394  0.0  -3.428443  -15.098523  -101.607984  43.915495  -26.064971  -25.612689  -19.000187  18.925432  37.574876  -4.46382  0.002146  2.944329  -3.368789  4.029956  15.964715  4.160092  6.649813  24.392448  8.085944  15.468769  -1.859359  -0.010216  -1.166905  3.683207  -0.205535  -3.179556  10.075349  -0.205535  -3.179556  10.075349  -11.678776  27.092839  -2.354241  -174.823331  71.734003  -128.685085  -40.328961  -32.719572  85.072417  25.456653  -44.701009  25.900461  -0.740638  -0.792024  13.309682  95.295901  34.511278  29.777706  -26.533099  27.092084  -100.098586  76.652617  14.142408  33.537071  7.822896  -0.571064  -4.843394  5.863035  -0.490434  -3.62591  
0.0  101.685394  0.0  -3.225935  -14.781298  -101.451932  43.219571  -25.673695  -25.508144  -18.221046  18.574488  37.952323  -4.708651  0.018671  2.826804  -3.476964  4.343927  15.936951  4.077662  6.636188  23.980865  8.250374  15.358543  -1.7633  0.029439  -1.164632  3.633745  -0.094629  -3.17956  9.938134  -0.094629  -3.17956  9.938135  -11.92234  26.854503  -2.277041  -176.619193  71.228391  -130.382931  -40.485463  -32.800792  85.124698  25.62211  -44.660396  26.070919  -0.906446  -0.985028  13.393214  95.219779  35.825072  29.967075  -26.699305  26.696322  -100.444918  76.673766  13.930788  33.548097  7.574742  -0.506017  -4.862397  5.677421  -0.439898  -3.641166  
0.0  101.685394  0.0  -2.806833  -14.83237  -101.529817  42.903998  -25.263085  -25.191789  -17.746631  18.346878  38.180598  -4.924064  0.103108  2.696441  -3.136174  4.853331  16.212812  4.084074  6.553587  23.464828  8.280928  15.331021  -1.726308  0.07803  -1.134002  3.605843  0.043859  -3.10338  9.859223  0.043859  -3.10338  9.859224  -11.880652  26.715574  -2.128928  -178.197435  70.696932  -131.968952  -40.669521  -33.127991  85.093089  26.703408  -44.416766  25.539903  -0.812013  -1.192313  13.489299  95.15347  37.158623  30.228488  -26.786548  26.27354  -100.768658  76.684511  13.660838  33.578547  7.360625  -0.385436  -4.965734  5.51775  -0.348978  -3.720285  
0.0  101.685394  0.0  -2.623294  -14.556048  -101.3762  42.423267  -24.832328  -25.157637  -17.355579  18.18704  38.468065  -5.303956  0.095644  2.433005  -3.455473  5.282738  16.328576  4.24868  6.487721  22.844662  8.266474  15.283007  -1.727169  0.091986  -1.140211  3.571239  0.082645  -3.122406  9.763969  0.082645  -3.122406  9.76397  -11.939608  26.629139  -2.140112  -179.801402  70.232201  -133.487223  -40.87026  -33.340867  85.240838  26.964808  -44.538845  25.477192  -0.693934  -1.381421  13.413864  95.095287  38.44304  30.473496  -26.886863  25.820704  -101.023325  76.657524  13.462067  33.570445  7.257285  -0.254394  -5.053692  5.441293  -0.250876  -3.787876  
0.0  101.685394  0.0  -2.13475  -14.838665  -101.514224  42.455917  -24.405782  -24.837984  -17.190922  18.12264  38.668727  -5.355914  0.136855  2.304023  -3.148257  5.920507  16.731833  4.382545  6.41582  22.145577  8.185268  15.247947  -1.778329  0.158897  -1.097136  3.56767  0.271723  -3.014816  9.750846  0.271723  -3.014816  9.750846  -11.807655  26.544636  -2.057295  178.982631  69.657679  -134.770816  -41.090243  -33.488814  85.484312  27.079019  -44.591201  25.530885  -0.505917  -1.695977  13.280664  95.213323  39.619896  30.824592  -27.777788  25.096016  -101.35696  76.432736  13.429528  32.472937  7.105032  -0.126893  -5.256221  5.328148  -0.156323  -3.94132  
0.0  101.685394  0.0  -1.950108  -14.628646  -101.305179  42.130845  -23.910472  -24.861504  -17.128969  18.099554  38.880934  -5.355182  0.12938  2.138994  -3.449654  6.37135  16.872161  4.510482  6.356839  21.40617  8.112422  15.264204  -1.824616  0.208761  -1.088286  3.53958  0.410354  -2.9979  9.67172  0.410354  -2.9979  9.67172  -11.950107  26.392239  -2.117561  177.444963  69.178781  -136.184548  -41.338918  -33.525855  85.75753  27.206292  -44.4879  25.595354  -0.424567  -2.077314  13.042091  95.151087  40.797455  31.043878  -27.726494  24.486768  -101.431361  76.416103  13.487037  32.12049  6.951542  -0.065211  -5.42092  5.213565  -0.110603  -4.065572  
0.0  101.685394  0.0  -1.45782  -15.244902  -101.544177  42.509052  -23.549628  -24.46446  -17.161413  18.089103  39.07955  -5.170643  0.114957  2.038952  -2.856114  6.993457  17.368906  4.603227  6.297912  20.666713  8.034472  15.245852  -1.87949  0.355893  -1.034633  3.552869  0.819017  -2.873218  9.701566  0.819017  -2.873218  9.701566  -11.794093  26.232021  -1.95254  176.817203  68.236875  -137.489677  -41.537039  -32.972355  86.780377  27.278379  -44.209331  25.732058  -0.43203  -2.511266  12.845562  95.41582  41.829831  31.373866  -27.661046  23.928867  -101.428126  76.383944  13.556752  31.663729  6.775081  -0.021542  -5.601979  5.08162  -0.078285  -4.201859  
0.0  101.685394  0.0  -1.228695  -15.004845  -101.38584  42.127756  -23.002661  -24.333323  -17.222074  18.046368  39.26072  -5.125265  0.070908  1.890764  -3.041981  7.504536  17.57422  4.541587  6.237286  19.915904  8.018119  15.259392  -1.914891  0.401264  -1.016576  3.529765  0.94644  -2.830335  9.636502  0.94644  -2.830335  9.636502  -11.812038  26.031526  -1.965526  175.083927  67.618494  -139.096323  -41.838473  -32.69623  87.169791  27.394331  -43.774646  25.871483  -0.315724  -2.861559  12.638081  95.339388  42.989523  31.556088  -27.67087  23.572541  -101.380329  76.309667  13.536741  31.285759  6.65327  0.021106  -5.750889  4.990675  -0.046796  -4.314003  
0.0  101.685394  0.0  -0.924187  -14.961383  -101.36016  41.872306  -22.473248  -24.035658  -17.229803  17.762595  39.472875  -5.008678  0.093336  1.833302  -3.020498  8.085895  17.866642  4.402596  6.169865  19.208805  8.055661  15.278938  -1.959706  0.459728  -0.992331  3.518265  1.109948  -2.77255  9.602738  1.109948  -2.77255  9.602738  -11.740869  25.784774  -1.943798  173.595972  66.789749  -140.773342  -42.147824  -32.126896  87.731195  27.516601  -43.227181  26.094981  -0.270193  -3.334716  12.313548  95.702124  43.895073  32.073726  -27.755326  23.299651  -101.298291  76.277212  13.462861  31.096581  6.513011  0.071631  -5.915864  4.885994  -0.009331  -4.438259  
0.0  101.685394  0.0  -0.635913  -14.700944  -101.21793  41.423887  -21.805786  -23.743138  -17.306564  17.507317  39.627797  -5.023991  0.119159  1.732563  -3.038578  8.64426  18.102093  4.192284  6.112659  18.516494  8.065683  15.276904  -1.982814  0.487506  -0.977367  3.482671  1.189392  -2.735186  9.504369  1.189393  -2.735186  9.504369  -11.574885  25.607513  -1.87762  171.694591  66.034871  -142.633608  -42.487481  -31.512116  88.141588  27.751445  -42.604398  26.296525  0.017443  -3.609563  12.162547  95.883257  44.830496  32.428665  -27.959158  23.028591  -101.127394  76.290109  13.331031  31.07671  6.462029  0.154585  -5.965727  4.848576  0.052866  -4.476521  
0.0  101.685394  0.0  -0.282389  -14.528785  -101.153633  41.020489  -21.096204  -23.335132  -17.516819  17.262487  39.743938  -5.026899  0.19994  1.600158  -3.081281  9.284064  18.303526  3.971732  6.023737  17.908229  8.221692  15.359021  -1.964434  0.510342  -0.961649  3.438645  1.255769  -2.69483  9.383191  1.255769  -2.69483  9.38319  -11.475056  25.374364  -1.741205  170.889264  64.808483  -144.368055  -42.689791  -30.474017  89.068268  27.995728  -41.989275  26.526058  0.170123  -3.91504  11.96167  96.549943  45.412032  32.997325  -28.168184  22.657469  -100.921128  76.317897  13.11851  31.220715  6.455288  0.277441  -5.959858  4.844708  0.145158  -4.473407  
0.0  101.685394  0.0  0.053587  -14.179122  -101.064779  40.435233  -20.314537  -22.908265  -17.867228  17.112467  39.836277  -4.878312  0.306829  1.476136  -3.040482  9.888447  18.543747  3.765378  5.955223  17.376272  8.193675  15.382905  -1.956153  0.515005  -0.954446  3.389054  1.271552  -2.674969  9.247466  1.271552  -2.674969  9.247466  -11.140238  25.27826  -1.503187  168.944949  63.866619  -146.331217  -42.962097  -29.818433  89.519225  28.45351  -41.398618  26.538155  0.518688  -4.039265  11.912291  96.841251  46.032886  33.260941  -28.308123  22.201381  -100.693069  76.226067  12.952374  31.450631  6.458244  0.433883  -5.899734  4.848384  0.263125  -4.429951  
